# xmcd
#
# Track frame offsets:
#	150
#	24383
#	45471
#	52397
#	73639
#	88908
#	109606
#	136083
#	141105
#	161661
#	189732
#	204122
#	221768
#
# Disc length: 3304 seconds
#
# Revision: 1
# Processed by: cddbd v1.5.2PL0 Copyright (c) Steve Scherf et al.
# Submitted via: audiograbber 1.83.01
#
DISCID=bd0ce60d
DTITLE=Starfish Bowl - Open Up
DYEAR=2003
DGENRE=Blues
TTITLE0=The Fire Is On
TTITLE1=Heather
TTITLE2=Mr. Low Blow
TTITLE3=Blond
TTITLE4=Snake Eyes
TTITLE5=Spanish Fly
TTITLE6=The Garden (Frontyard)
TTITLE7=Oyster Club Amore
TTITLE8=Hands
TTITLE9=Forget It
TTITLE10=Freakstreet
TTITLE11=Dieselman
TTITLE12=The Garden (Backyard)
EXTD=
EXTT0=
EXTT1=
EXTT2=
EXTT3=
EXTT4=
EXTT5=
EXTT6=
EXTT7=
EXTT8=
EXTT9=
EXTT10=
EXTT11=
EXTT12=
PLAYORDER=
